# xmcd CD database file
#
# Track frame offsets:
#	150
#	28966
#	42237
#	58358
#	77680
#	92433
#	106554
#	115247
#	122192
#	129475
#	145183
#	159825
#	171465
#	187781
#	201625
#	211445
#	219373
#	222912
#	229802
#	239068
#
# Disc length: 3580 seconds
#
# Revision: 0
# Processed by: cddbd v1.5.1PL2 Copyright (c) Steve Scherf et al.
# Submitted via: CDex 1.51
#
DISCID=270dfa14
DTITLE=Falcom - Vantage Master V2
DYEAR=1998
DGENRE=Game
TTITLE0=[Data Track]
TTITLE1=静かなる純白
TTITLE2=瞬きを見上げて
TTITLE3=陰と煌めきの郡舞
TTITLE4=孤独との戦い
TTITLE5=頂点を夢見て
TTITLE6=純粋なる者たち
TTITLE7=覇者の凱旋
TTITLE8=仄かな希望の灯
TTITLE9=時の迷宮
TTITLE10=いにしえの神の都
TTITLE11=次元の狭間で
TTITLE12=危険な予感
TTITLE13=地の底の行軍
TTITLE14=開闢の時
TTITLE15=Vantage
TTITLE16=ビジュアル
TTITLE17=いざない
TTITLE18=追憶の脈動
TTITLE19=そして新たなる道へ
EXTD=YEAR: 1998
EXTT0=
EXTT1=
EXTT2=
EXTT3=
EXTT4=
EXTT5=
EXTT6=
EXTT7=
EXTT8=
EXTT9=
EXTT10=
EXTT11=
EXTT12=
EXTT13=
EXTT14=
EXTT15=
EXTT16=
EXTT17=
EXTT18=
EXTT19=
PLAYORDER=
